<?xml version="1.0" encoding="UTF-8" standalone="no"?>
<svg
   xmlns:dc="http://purl.org/dc/elements/1.1/"
   xmlns:cc="http://creativecommons.org/ns#"
   xmlns:rdf="http://www.w3.org/1999/02/22-rdf-syntax-ns#"
   xmlns:svg="http://www.w3.org/2000/svg"
   xmlns="http://www.w3.org/2000/svg"
   xmlns:sodipodi="http://sodipodi.sourceforge.net/DTD/sodipodi-0.dtd"
   xmlns:inkscape="http://www.inkscape.org/namespaces/inkscape"
   version="1.1"
   width="20"
   height="20"
   viewBox="0 0 20 20"
   id="svg176"
   sodipodi:docname="desktop.svg"
   inkscape:version="1.0.2 (e86c870879, 2021-01-15)">
  <metadata
     id="metadata182">
    <rdf:RDF>
      <cc:Work
         rdf:about="">
        <dc:format>image/svg+xml</dc:format>
        <dc:type
           rdf:resource="http://purl.org/dc/dcmitype/StillImage" />
      </cc:Work>
    </rdf:RDF>
  </metadata>
  <defs
     id="defs180" />
  <sodipodi:namedview
     pagecolor="#ffffff"
     bordercolor="#666666"
     borderopacity="1"
     objecttolerance="10"
     gridtolerance="10"
     guidetolerance="10"
     inkscape:pageopacity="0"
     inkscape:pageshadow="2"
     inkscape:window-width="1328"
     inkscape:window-height="688"
     id="namedview178"
     showgrid="false"
     inkscape:zoom="23.65"
     inkscape:cx="-8.8909648"
     inkscape:cy="10"
     inkscape:window-x="19"
     inkscape:window-y="13"
     inkscape:window-maximized="0"
     inkscape:current-layer="svg176"
     inkscape:document-rotation="0" />
  <path
     fill="#00b3fe"
     d="M 18,2 H 2 C 1.173,2 0.5,2.673 0.5,3.5 v 10 C 0.5,14.327 1.173,15 2,15 h 7.5 v 2 H 6 C 5.724,17 5.5,17.224 5.5,17.5 5.5,17.776 5.724,18 6,18 h 8 c 0.276,0 0.5,-0.224 0.5,-0.5 C 14.5,17.224 14.276,17 14,17 H 10.5 V 15 H 18 c 0.827,0 1.5,-0.673 1.5,-1.5 V 3.5 C 19.5,2.673 18.827,2 18,2 Z m 0.5,11.5 C 18.5,13.776 18.276,14 18,14 H 2 C 1.724,14 1.5,13.776 1.5,13.5 V 3.5 C 1.5,3.224 1.724,3 2,3 h 16 c 0.276,0 0.5,0.224 0.5,0.5 z"
     id="path174" />
</svg>
