<?xml version="1.0" encoding="UTF-8" standalone="no"?>
<svg
   xmlns:dc="http://purl.org/dc/elements/1.1/"
   xmlns:cc="http://creativecommons.org/ns#"
   xmlns:rdf="http://www.w3.org/1999/02/22-rdf-syntax-ns#"
   xmlns:svg="http://www.w3.org/2000/svg"
   xmlns="http://www.w3.org/2000/svg"
   xmlns:sodipodi="http://sodipodi.sourceforge.net/DTD/sodipodi-0.dtd"
   xmlns:inkscape="http://www.inkscape.org/namespaces/inkscape"
   version="1.1"
   width="20"
   height="20"
   viewBox="0 0 20 20"
   id="svg154"
   sodipodi:docname="laptop.svg"
   inkscape:version="1.0.2 (e86c870879, 2021-01-15)">
  <metadata
     id="metadata160">
    <rdf:RDF>
      <cc:Work
         rdf:about="">
        <dc:format>image/svg+xml</dc:format>
        <dc:type
           rdf:resource="http://purl.org/dc/dcmitype/StillImage" />
      </cc:Work>
    </rdf:RDF>
  </metadata>
  <defs
     id="defs158" />
  <sodipodi:namedview
     pagecolor="#ffffff"
     bordercolor="#666666"
     borderopacity="1"
     objecttolerance="10"
     gridtolerance="10"
     guidetolerance="10"
     inkscape:pageopacity="0"
     inkscape:pageshadow="2"
     inkscape:window-width="1328"
     inkscape:window-height="688"
     id="namedview156"
     showgrid="false"
     inkscape:zoom="23.65"
     inkscape:cx="-3.97463"
     inkscape:cy="10"
     inkscape:window-x="19"
     inkscape:window-y="13"
     inkscape:window-maximized="0"
     inkscape:current-layer="svg154" />
  <path
     id="path150"
     d="M 3.5,2.5 C 2.673,2.5 2,3.173 2,4 v 8 c 0,0.827 0.673,1.5 1.5,1.5 h 13 C 17.327,13.5 18,12.827 18,12 V 4 C 18,3.173 17.327,2.5 16.5,2.5 Z m 0,1 h 13 C 16.776,3.5 17,3.724 17,4 v 8 c 0,0.276 -0.224,0.5 -0.5,0.5 H 3.5 C 3.224,12.5 3,12.276 3,12 V 4 C 3,3.724 3.224,3.5 3.5,3.5 Z m -3,11 C 0.224,14.5 0,14.724 0,15 v 1 c 0,0.827 0.673,1.5 1.5,1.5 h 17 c 0.827,0 1.5,-0.673 1.5,-1.5 v -1 c 0,-0.276 -0.224,-0.5 -0.5,-0.5 z m 0.5,1 H 19 V 16 c 0,0.276 -0.224,0.5 -0.5,0.5 H 1.5 C 1.224,16.5 1,16.276 1,16 Z"
     style="fill:#00b3fe;fill-opacity:1" />
</svg>
