<?xml version="1.0" encoding="UTF-8" standalone="no"?>
<svg
   xmlns:dc="http://purl.org/dc/elements/1.1/"
   xmlns:cc="http://creativecommons.org/ns#"
   xmlns:rdf="http://www.w3.org/1999/02/22-rdf-syntax-ns#"
   xmlns:svg="http://www.w3.org/2000/svg"
   xmlns="http://www.w3.org/2000/svg"
   xmlns:sodipodi="http://sodipodi.sourceforge.net/DTD/sodipodi-0.dtd"
   xmlns:inkscape="http://www.inkscape.org/namespaces/inkscape"
   version="1.1"
   width="20"
   height="20"
   viewBox="0 0 20 20"
   id="svg154"
   sodipodi:docname="laptop.svg"
   inkscape:version="1.0.2 (e86c870879, 2021-01-15)">
  <metadata
     id="metadata160">
    <rdf:RDF>
      <cc:Work
         rdf:about="">
        <dc:format>image/svg+xml</dc:format>
        <dc:type
           rdf:resource="http://purl.org/dc/dcmitype/StillImage" />
      </cc:Work>
    </rdf:RDF>
  </metadata>
  <defs
     id="defs158" />
  <sodipodi:namedview
     pagecolor="#ffffff"
     bordercolor="#666666"
     borderopacity="1"
     objecttolerance="10"
     gridtolerance="10"
     guidetolerance="10"
     inkscape:pageopacity="0"
     inkscape:pageshadow="2"
     inkscape:window-width="1328"
     inkscape:window-height="688"
     id="namedview156"
     showgrid="false"
     inkscape:zoom="23.65"
     inkscape:cx="-0.35940803"
     inkscape:cy="10"
     inkscape:window-x="19"
     inkscape:window-y="13"
     inkscape:window-maximized="0"
     inkscape:current-layer="svg154" />
  <path
     fill="#00b3fe"
     d="m 3.5,15 h 13 c 0.827,0 1.5,-0.673 1.5,-1.5 v -8 C 18,4.673 17.327,4 16.5,4 H 3.5 C 2.673,4 2,4.673 2,5.5 v 8 C 2,14.327 2.673,15 3.5,15 Z M 3,5.5 C 3,5.224 3.224,5 3.5,5 h 13 C 16.776,5 17,5.224 17,5.5 v 8 C 17,13.776 16.776,14 16.5,14 H 3.5 C 3.224,14 3,13.776 3,13.5 Z"
     id="path150" />
  <path
     fill="#00b3fe"
     d="M 19.5,17 H 0.5 C 0.224,17 0,17.224 0,17.5 v 1 C 0,19.327 0.673,20 1.5,20 h 17 c 0.827,0 1.5,-0.673 1.5,-1.5 v -1 C 20,17.224 19.776,17 19.5,17 Z m -1,2 H 1.5 C 1.224,19 1,18.776 1,18.5 V 18 h 18 v 0.5 c 0,0.276 -0.224,0.5 -0.5,0.5 z"
     id="path152" />
</svg>
