<svg xmlns="http://www.w3.org/2000/svg" version="1.1" width="24.244898" height="35.265305" viewBox="0 0 24.244898 35.265305">
	<g transform="translate(-83.755102,-92.734694)">
		<path fill="#00b3fe" d="m 95.877551,92.734694 c -6.695173,0 -12.122449,5.427275 -12.122449,12.122446 0,6.69518 12.122449,23.14286 12.122449,23.14286 0,0 12.122449,-16.44768 12.122449,-23.14286 0,-6.695171 -5.42728,-12.122446 -12.122449,-12.122446 z m -9.918367,12.122446 c 0,-5.469426 4.448938,-9.918364 9.918367,-9.918364 5.469429,0 9.918369,4.448938 9.918369,9.918364 0,3.80976 -5.51241,13.00712 -9.918369,19.35129 -4.405959,-6.34417 -9.918367,-15.54153 -9.918367,-19.35129 z m 9.918367,-5.510201 c -3.043561,0 -5.510204,2.466641 -5.510204,5.510201 0,3.04356 2.466643,5.51021 5.510204,5.51021 3.043561,0 5.510209,-2.46665 5.510209,-5.51021 0,-3.04356 -2.466648,-5.510201 -5.510209,-5.510201 z m 0,8.816331 c -1.823051,0 -3.306122,-1.48308 -3.306122,-3.30613 0,-1.82305 1.483071,-3.30612 3.306122,-3.30612 1.823051,0 3.306122,1.48307 3.306122,3.30612 0,1.82305 -1.483071,3.30613 -3.306122,3.30613 z" />
	</g>
</svg>
