<?xml version="1.0" ?><!DOCTYPE svg  PUBLIC '-//W3C//DTD SVG 1.1//EN'  'http://www.w3.org/Graphics/SVG/1.1/DTD/svg11.dtd'><svg enable-background="new 0 0 40 40" height="40px" id="Layer_1" version="1.1" viewBox="0 0 40 40" width="40px" xml:space="preserve" xmlns="http://www.w3.org/2000/svg" xmlns:xlink="http://www.w3.org/1999/xlink"><g><g><path d="M20,2.071c9.925,0,18,8.075,18,18s-8.074,18-18,18s-18-8.075-18-18S10.075,2.071,20,2.071 M20,0.071    c-11.046,0-20,8.954-20,20c0,11.047,8.954,20,20,20c11.046,0,20-8.953,20-20C40,9.025,31.047,0.071,20,0.071L20,0.071z" fill="#959595"/></g><path d="M21.068,9.018c-5.881,0-8.846,4.216-8.846,7.732c0,2.129,0.806,4.023,2.534,4.728   c0.284,0.117,0.538,0.004,0.62-0.309c0.057-0.219,0.191-0.766,0.252-0.994c0.084-0.311,0.051-0.42-0.178-0.69   c-0.498-0.588-0.816-1.349-0.816-2.427c0-3.129,2.34-5.929,6.094-5.929c3.325,0,5.151,2.031,5.151,4.743   c0,3.569-1.58,6.582-3.924,6.582c-1.295,0-2.265-1.07-1.955-2.384c0.372-1.568,1.093-3.261,1.093-4.393   c0-1.013-0.544-1.858-1.67-1.858c-1.323,0-2.387,1.37-2.387,3.204c0,1.169,0.395,1.959,0.395,1.959s-1.354,5.74-1.592,6.746   c-0.473,2.002-0.07,4.456-0.037,4.704c0.02,0.146,0.209,0.182,0.295,0.07c0.121-0.16,1.698-2.106,2.234-4.052   c0.151-0.551,0.871-3.402,0.871-3.402c0.43,0.82,1.687,1.543,3.024,1.543c3.979,0,6.678-3.627,6.678-8.483   C28.904,12.437,25.795,9.018,21.068,9.018z" fill="#959595"/></g></svg>