<?xml version="1.0" ?><!DOCTYPE svg  PUBLIC '-//W3C//DTD SVG 1.1//EN'  'http://www.w3.org/Graphics/SVG/1.1/DTD/svg11.dtd'><svg enable-background="new 0 0 40 40" height="40px" id="Layer_1" version="1.1" viewBox="0 0 40 40" width="40px" xml:space="preserve" xmlns="http://www.w3.org/2000/svg" xmlns:xlink="http://www.w3.org/1999/xlink"><g><g><path d="M20,2.348c9.925,0,18,8.075,18,18s-8.074,18-18,18s-18-8.075-18-18S10.075,2.348,20,2.348 M20,0.348    c-11.046,0-20,8.954-20,20c0,11.047,8.954,20,20,20c11.046,0,20-8.953,20-20C40,9.302,31.047,0.348,20,0.348L20,0.348z" fill="#959595"/></g><path d="M31.516,13.206c-0.846,0.376-1.758,0.63-2.713,0.744c0.975-0.585,1.725-1.511,2.078-2.614   c-0.914,0.542-1.926,0.935-3.002,1.146c-0.861-0.919-2.09-1.492-3.449-1.492c-2.609,0-4.725,2.116-4.725,4.726   c0,0.37,0.042,0.73,0.122,1.076c-3.927-0.197-7.408-2.078-9.739-4.938c-0.407,0.699-0.64,1.51-0.64,2.376   c0,1.64,0.834,3.086,2.102,3.934c-0.774-0.025-1.503-0.237-2.14-0.592c0,0.02,0,0.04,0,0.06c0,2.29,1.629,4.199,3.791,4.634   c-0.396,0.107-0.814,0.166-1.245,0.166c-0.305,0-0.601-0.031-0.889-0.086c0.602,1.877,2.346,3.244,4.414,3.281   c-1.617,1.268-3.654,2.023-5.868,2.023c-0.381,0-0.757-0.023-1.127-0.066c2.091,1.34,4.575,2.123,7.243,2.123   c8.692,0,13.444-7.201,13.444-13.445c0-0.204-0.004-0.408-0.014-0.611C30.082,14.986,30.883,14.153,31.516,13.206z" fill="#959595"/></g></svg>