<?xml version="1.0" ?><!DOCTYPE svg  PUBLIC '-//W3C//DTD SVG 1.1//EN'  'http://www.w3.org/Graphics/SVG/1.1/DTD/svg11.dtd'><svg enable-background="new 0 0 40 40" height="40px" id="Layer_1" version="1.1" viewBox="0 0 40 40" width="40px" xml:space="preserve" xmlns="http://www.w3.org/2000/svg" xmlns:xlink="http://www.w3.org/1999/xlink"><g><g><g><g><g><g><path d="M20,2c9.925,0,18,8.075,18,18s-8.075,18-18,18c-9.925,0-18-8.074-18-18S10.075,2,20,2 M20,0        C8.955,0,0,8.955,0,20c0,11.046,8.955,20,20,20c11.047,0,20-8.953,20-20C40,8.955,31.047,0,20,0L20,0z" fill="#959595"/></g></g></g></g></g><path d="M27.779,24.951v0.658h-1.288v-0.658c0-0.657,0.216-0.986,0.646-0.986   C27.564,23.965,27.779,24.294,27.779,24.951z M22.359,23.965c-0.213,0-0.428,0.102-0.644,0.313v4.332   c0.216,0.215,0.431,0.316,0.644,0.316c0.371,0,0.56-0.316,0.56-0.958v-3.032C22.919,24.294,22.73,23.965,22.359,23.965z    M30.655,25.389c0,1.663-0.003,3.424-0.373,5.038c-0.261,1.133-1.188,1.969-2.305,2.095c-2.642,0.293-5.316,0.296-7.979,0.293   c-2.662,0.003-5.337,0-7.979-0.293c-1.116-0.126-2.042-0.962-2.303-2.095c-0.371-1.614-0.371-3.375-0.371-5.038   c0-1.66,0.005-3.422,0.376-5.036c0.261-1.133,1.187-1.969,2.303-2.093c2.643-0.296,5.316-0.297,7.979-0.296   c2.662,0,5.336,0,7.979,0.296c1.115,0.125,2.042,0.96,2.303,2.093C30.656,21.967,30.655,23.729,30.655,25.389z M15.424,20.461   h-4.489v1.344h1.515v8.193h1.433v-8.193h1.542V20.461z M19.315,22.893h-1.289v5.432c-0.286,0.403-0.556,0.602-0.813,0.602   c-0.173,0-0.271-0.102-0.303-0.301c-0.012-0.042-0.012-0.199-0.012-0.501v-5.231h-1.287v5.619c0,0.502,0.042,0.842,0.113,1.057   c0.129,0.359,0.415,0.529,0.831,0.529c0.473,0,0.958-0.287,1.471-0.873v0.773h1.289V22.893z M24.206,25.037   c0-0.674-0.044-1.144-0.129-1.43c-0.172-0.531-0.517-0.802-1.029-0.802c-0.474,0-0.916,0.259-1.332,0.771v-3.115h-1.287v9.537   h1.287v-0.688c0.431,0.531,0.873,0.787,1.332,0.787c0.513,0,0.857-0.271,1.029-0.799c0.085-0.303,0.129-0.775,0.129-1.434V25.037z    M29.066,25.209c0-0.76-0.129-1.315-0.398-1.674c-0.36-0.487-0.874-0.729-1.52-0.729c-0.657,0-1.169,0.242-1.542,0.729   c-0.273,0.358-0.398,0.914-0.398,1.674v2.488c0,0.756,0.142,1.316,0.414,1.672c0.373,0.484,0.886,0.729,1.559,0.729   s1.201-0.256,1.557-0.771c0.157-0.228,0.258-0.486,0.302-0.771c0.012-0.129,0.027-0.414,0.027-0.829v-0.188h-1.313   c0,0.517-0.017,0.803-0.028,0.873c-0.073,0.344-0.259,0.516-0.576,0.516c-0.441,0-0.657-0.327-0.657-0.986v-1.259h2.575V25.209z    M16.343,12.92v3.904H14.9V12.92c-0.132-0.691-0.421-1.705-0.883-3.048c-0.304-0.895-0.62-1.792-0.925-2.686h1.519l1.024,3.785   l0.983-3.785h1.459L16.343,12.92z M21.531,16.188c-0.358,0.489-0.865,0.735-1.519,0.735c-0.647,0-1.154-0.246-1.514-0.735   c-0.277-0.359-0.408-0.926-0.408-1.689v-2.514c0-0.769,0.131-1.329,0.408-1.692c0.359-0.491,0.866-0.736,1.514-0.736   c0.653,0,1.16,0.245,1.519,0.736c0.272,0.363,0.404,0.924,0.404,1.692v2.514C21.936,15.262,21.804,15.828,21.531,16.188z    M20.634,11.722c0-0.664-0.2-0.996-0.621-0.996c-0.419,0-0.62,0.332-0.62,0.996v3.021c0,0.665,0.201,0.997,0.62,0.997   c0.421,0,0.621-0.332,0.621-0.997V11.722z M25.446,16.824v-0.784c-0.518,0.594-1.013,0.882-1.486,0.882   c-0.418,0-0.708-0.17-0.839-0.534c-0.071-0.217-0.115-0.56-0.115-1.067V9.642h1.298v5.289c0,0.304,0,0.463,0.017,0.505   c0.028,0.202,0.13,0.305,0.304,0.305c0.261,0,0.533-0.202,0.822-0.609V9.642h1.302v7.183H25.446z" fill="#959595"/></g></svg>